<svg width="177" height="177" viewBox="0 0 177 177" fill="none" xmlns="http://www.w3.org/2000/svg">
<circle cx="88.5" cy="88.5" r="88.5" fill="#2C8C14"/>
<path d="M100.5 76.5H75.5V101.5H100.5V76.5ZM92.1667 93.1667H83.8333V84.8333H92.1667V93.1667ZM125.5 84.8333V76.5H117.167V68.1667C117.167 63.5833 113.417 59.8333 108.833 59.8333H100.5V51.5H92.1667V59.8333H83.8333V51.5H75.5V59.8333H67.1667C62.5833 59.8333 58.8333 63.5833 58.8333 68.1667V76.5H50.5V84.8333H58.8333V93.1667H50.5V101.5H58.8333V109.833C58.8333 114.417 62.5833 118.167 67.1667 118.167H75.5V126.5H83.8333V118.167H92.1667V126.5H100.5V118.167H108.833C113.417 118.167 117.167 114.417 117.167 109.833V101.5H125.5V93.1667H117.167V84.8333H125.5ZM108.833 109.833H67.1667V68.1667H108.833V109.833Z" fill="white"/>
</svg>
