<svg width="177" height="177" viewBox="0 0 177 177" fill="none" xmlns="http://www.w3.org/2000/svg">
<circle cx="88.5" cy="88.5" r="88.5" fill="#F5BC5E"/>
<path d="M89 76.5C98.2083 76.5 105.667 69.0417 105.667 59.8334C105.667 50.625 98.2083 43.1667 89 43.1667C79.7917 43.1667 72.3333 50.625 72.3333 59.8334C72.3333 69.0417 79.7917 76.5 89 76.5ZM89 51.5C93.5833 51.5 97.3333 55.25 97.3333 59.8334C97.3333 64.4167 93.5833 68.1667 89 68.1667C84.4167 68.1667 80.6667 64.4167 80.6667 59.8334C80.6667 55.25 84.4167 51.5 89 51.5ZM89 87.125C79.1667 77.9584 66 72.3334 51.5 72.3334V118.167C66 118.167 79.1667 123.792 89 132.958C98.8333 123.833 112 118.167 126.5 118.167V72.3334C112 72.3334 98.8333 77.9584 89 87.125ZM118.167 110.375C107.625 111.792 97.625 115.792 89 122.125C80.4167 115.792 70.375 111.75 59.8333 110.333V81.375C68.5833 82.9584 76.7083 87 83.3333 93.1667L89 98.5L94.6667 93.2084C101.292 87.0417 109.417 83 118.167 81.4167V110.375Z" fill="white"/>
</svg>
