<svg width="36" height="36" viewBox="0 0 36 36" fill="none" xmlns="http://www.w3.org/2000/svg">
<circle cx="18" cy="18" r="18" fill="#144976"/>
<rect x="12.5034" y="9.57246" width="16.9347" height="0.806576" transform="rotate(30 12.5034 9.57246)" fill="white"/>
<rect x="12.3035" y="25.7687" width="16.9347" height="0.806576" transform="rotate(-30 12.3035 25.7687)" fill="white"/>
<rect x="12.2034" y="26.4941" width="16.9347" height="0.806576" transform="rotate(-90 12.2034 26.4941)" fill="white"/>
<rect x="12.2034" y="25.4587" width="13.832" height="0.806576" transform="rotate(-57.2118 12.2034 25.4587)" fill="white"/>
<rect x="13.6987" y="11.5932" width="12.5368" height="0.806576" transform="rotate(57.6982 13.6987 11.5932)" fill="white"/>
<rect x="12" y="18.2149" width="8.9279" height="0.806576" transform="rotate(-30.9216 12 18.2149)" fill="white"/>
<rect x="12.6247" y="17.6949" width="8.9279" height="0.806576" transform="rotate(31.4904 12.6247 17.6949)" fill="white"/>
<rect x="19.5254" y="21.5593" width="7.9322" height="0.813559" transform="rotate(-90 19.5254 21.5593)" fill="white"/>
<circle cx="12.5085" cy="10.2712" r="2.54237" fill="#FDD900"/>
<path d="M15.0508 18C15.0508 19.4041 13.9126 20.5424 12.5085 20.5424C11.1044 20.5424 9.96609 19.4041 9.96609 18C9.96609 16.5959 11.1044 15.4576 12.5085 15.4576C13.9126 15.4576 15.0508 16.5959 15.0508 18Z" fill="#FDD900"/>
<circle cx="12.5085" cy="25.7288" r="2.54237" fill="#FDD900"/>
<circle cx="19.8305" cy="21.8644" r="2.54237" fill="#E64E3C"/>
<path d="M22.3729 14.1356C22.3729 15.5397 21.2346 16.678 19.8305 16.678C18.4264 16.678 17.2881 15.5397 17.2881 14.1356C17.2881 12.7315 18.4264 11.5932 19.8305 11.5932C21.2346 11.5932 22.3729 12.7315 22.3729 14.1356Z" fill="#E64E3C"/>
<circle cx="27.1525" cy="18" r="2.54237" fill="#5DC1DA"/>
</svg>
